<?xml version="1.0" encoding="utf-8"?>
<!-- Generator: Adobe Illustrator 16.0.3, SVG Export Plug-In . SVG Version: 6.00 Build 0)  -->
<!DOCTYPE svg PUBLIC "-//W3C//DTD SVG 1.1//EN" "http://www.w3.org/Graphics/SVG/1.1/DTD/svg11.dtd">
<svg version="1.1" id="Capa_1" xmlns="http://www.w3.org/2000/svg" xmlns:xlink="http://www.w3.org/1999/xlink" x="0px" y="0px"
	 width="595.28px" height="841.89px" viewBox="0 0 595.28 841.89" enable-background="new 0 0 595.28 841.89" xml:space="preserve">
<g>
	<path fill="#FFFFFF" stroke="#FFFFFF" stroke-miterlimit="10" d="M416.632,312.104l0.924,56.436l-48.412,29.018l-49.336-27.417
		l-0.924-56.435l48.413-29.019L416.632,312.104z M366.844,295.445l-41.247,24.261l1.321,46.117l42.569,21.859l41.248-24.26
		l-1.322-46.119L366.844,295.445z"/>
	<polygon fill="#FFFFFF" stroke="#FFFFFF" stroke-miterlimit="10" points="373.08,295.034 373.08,316.95 384.58,323.45 
		385.283,381.034 394.95,379.034 395.58,328.2 405.83,334.95 405.83,325.2 382.83,311.95 382.58,300.95 	"/>
	<polygon fill="#FFFFFF" stroke="#FFFFFF" stroke-miterlimit="10" points="341.283,375.034 333.08,371.034 333.08,323.7 
		365.58,306.2 365.58,317.7 342.58,329.45 342.58,335.2 361.83,335.7 362.33,342.95 342.33,343.45 	"/>
</g>
</svg>
